<svg id="Layer_1" data-name="Layer 1" xmlns="http://www.w3.org/2000/svg" viewBox="0 0 628.18 232.53"><defs><style>.cls-1{fill:none;stroke:#fc0;stroke-miterlimit:10;stroke-width:6px;}.cls-2{fill:#fc0;}.cls-3{fill:#fff;}</style></defs><g id="vitruvian"><circle class="cls-1" cx="116.26" cy="116.26" r="113.26"/><path id="Man" class="cls-2" d="M448.37,211s4.91,1.52,6.42,5.48L466,223.12s12.26,3.33,14.24,7a21,21,0,0,0,6,1.28c3.33.21,9.57,3.4,10.14,4.53,0,0-.43.5,4,.71s6,2.34,6,2.34h4.11s7-3.82,7.8-5.1-.78-8.72-.78-8.72-1.56.78-1.7-1.13-.43-5.17.85-4.54c0,0-.93-7.15,4.6-9.56s11.2,1.49,10.35,9.07c0,0,1.42-.43,1.42,2.05s-.29,4.68-2.06,4.25L529.89,234s5.74,4.47,8.71,5.32,6.31-1.49,6.31-1.49a16.44,16.44,0,0,1,7-1.56,23.94,23.94,0,0,1,13.67-5,8.16,8.16,0,0,0,4.89-3.26c1.78-2.69,12.05-4.89,12.05-4.89s7.87-5.53,10.56-6.31c0,0,2.76-5.45,7.16-5.88l.85-.85,8.57,8.08-1.34.49a10.78,10.78,0,0,0-4.75.5s-4.61,4.18-9.57,4.47c0,0-8.57,5.45-12.4,8.85s-7.51,4.82-8.65,4.82-6.73,3-7,4.11,9.21.36,9.21.36,9.28-.92,11.48.21l8.79-.21,5.38-.64.36,6.94s-2.77-1.13-9.07.78-16.09,3.12-22.4,2a25.31,25.31,0,0,0-6.3,1.63c-2.06,1.06-10.63-.36-10.63-.36l-7.23-.92s-1,11.55-5,17.36c0,0-3.9,9.57-.64,16.73,0,0,1.27,13.25,4.39,16,0,0,11.7,17.72,11.48,26.72,0,0,1.42,3.33.92,4.68,0,0,4.89,5.95,5,8.71,0,0,10.13,10.85,10.13,19.92,0,0,3,13.32,4.82,15.38,0,0,.85,3.18,7.3,5.1l3.19.85-13.47,7.37-.35-6.1s-.07-2.12-4-9.35c0,0-9.71-11.62-10.56-14s-2.91-10.13-2.91-10.13-5.67-5.32-7.93-10.07c0,0-1.63-2.41-2.13-3.19,0,0-2-.85-2.83-4.32,0,0-1.7.92-1.7,4.82s.35,8,.35,8l-.21,5.74s1.77,6.38.64,8.57a128.1,128.1,0,0,0-2.27,17.65c-.5,9.28-1.14,13.75,11.19,19s1.42,2.34,1.42,2.34l-20.12,2.05s-.85-5.38.78-8.15v-7.93s-3.05-12.83-3.34-17.08-.49-10.42,1.35-14.1c0,0-1.65-7.35-2-21a21.7,21.7,0,0,1-2.27-10.3s-1.7-9.59-.9-12.05l-2.78,0s-.85,18.29-3,22.4c0,0-1.32,16.06-2.83,19.37,0,0,4.68,14.59,1,20.59,0,0-2.17,3-2.27,13.61,0,0-.71,6.85.76,9.36s-2.79,4-2.79,4l-18.28-2.6s10.91-2.83,13-8.08a58.26,58.26,0,0,0,.19-17.38s-2.93-11.34-1.85-18a45.26,45.26,0,0,0,.48-11.62s.94-4.49,0-6.43a14.79,14.79,0,0,1-1.18-3l-.9-.05s.19.94-1,2.74-3.59,4.77-4,6.71-2.84,3.73-3.59,4.35-3.4,2.83-3.88,5-2.5,10.72-5.24,13c0,0-7.89,8.83-8.69,11.9,0,0-3.4,5.39-3.73,7a25.54,25.54,0,0,0,.09,5.44l-12.43-5.86s7.28-1.61,9.26-5.62,4.49-15,4.49-15,1.42-8.93,4-11.48c0,0,.43-2.79,5.39-7.46,0,0,.09-2.08,2.41-4.68s5.48-12.28,5.15-14.46c0,0,1.32-6.19,6.85-16.53,0,0,3.92-7.51,6-9.69s2.37-13.41,2.37-13.41,3.92-7.28-2.41-19.61c0,0-2.93-5.15-3-13.8l-4.91.24s-9.26,3.73-17.25-.33c0,0-14.88.85-20.22-1.28,0,0-6.09-.61-9.16-2.07l-4.16.14.47-7.18s8.51,1.7,15,1a53.18,53.18,0,0,1,12.66.37s6.38.29,7-.42-1.56-1.61-1.56-1.61-15-6.05-18.19-10.68a73.15,73.15,0,0,0-6.94-5s-6.43-1.65-9.07-4.49c0,0-1.52-1-6.29-1.46s5-8.65,5-8.65Z" transform="translate(-408.71 -173.74)"/><circle class="cls-1" cx="200.62" cy="70.07" r="6.52"/><circle class="cls-1" cx="30.62" cy="70.07" r="6.52"/></g><g id="no"><path class="cls-2" d="M667.51,401.82H679V375.74s12.19-19,18.57-2.41V402h11.76v-32.6s-.28-10.91-9.63-12.75-18.85,3.26-21.26,8.07V357H667.37Z" transform="translate(-408.71 -173.74)"/><path class="cls-2" d="M739.4,356.59a23.17,23.17,0,1,0,20.69,20.69A23.17,23.17,0,0,0,739.4,356.59Zm4.51,34.32a13.08,13.08,0,0,1-11.45,1.41,9.51,9.51,0,0,1-3.58-2.19,11,11,0,0,1-2.43-4.25,18.15,18.15,0,0,1-1.11-5.32,12.83,12.83,0,0,1,.56-6.49,11.28,11.28,0,0,1,.78-1.68,14.21,14.21,0,0,1,3.9-4.59c4.54-3.42,11.55-4,17.44,6.95C750.37,381,748.49,387.7,743.91,390.91Z" transform="translate(-408.71 -173.74)"/></g><g id="limits"><path class="cls-3" d="M771,339.31h11.44v50.27a3.15,3.15,0,0,0,3.4,3.12,19.73,19.73,0,0,0,5.86-.85l1.51,8.32s-10.77,6.51-19.56-.29a9.19,9.19,0,0,1-2.93-5.86C770.37,390.24,771,339.31,771,339.31Z" transform="translate(-408.71 -173.74)"/><polygon class="cls-3" points="389.44 165.67 389.44 176.63 401.07 176.63 401.07 165.76 389.44 165.67"/><polygon class="cls-3" points="491.44 165.67 491.44 176.63 503.07 176.63 503.07 165.76 491.44 165.67"/><polygon class="cls-3" points="389.63 183.15 400.97 183.15 400.97 228.13 389.82 228.13 389.63 183.15"/><polygon class="cls-3" points="491.63 183.15 502.97 183.15 502.97 228.13 491.82 228.13 491.63 183.15"/><path class="cls-3" d="M820.07,357h10.59v7.94a27.55,27.55,0,0,1,8.22-6.52c6.68-3.37,16.11-4.49,21,6.52a31.5,31.5,0,0,1,8.79-6.61c6.66-3.25,15.7-4.18,20.69,6.61a17.18,17.18,0,0,1,1,5.29c.19,3.31,0,31.84,0,31.84H878.56V372.86s-3.15-11.23-12.75-3.78a15.94,15.94,0,0,0-4.73,6.14V402H849.27V373.24s-3.06-12.32-13.32-4a12.62,12.62,0,0,0-4.16,6v26.93H820.07Z" transform="translate(-408.71 -173.74)"/><path class="cls-3" d="M925.05,357V342.5h11.41v14.39h9.64V366h-9.64v22.82s.21,3.4,3.4,3.4a22.44,22.44,0,0,0,7-1.56l2.41,9s-13,7.37-21.9-.42c0,0-1.92-1.35-2.27-5.1s0-28.35,0-28.35h-6v-8.74Z" transform="translate(-408.71 -173.74)"/><path class="cls-3" d="M984.29,369l4.61-6.88s-15.09-12.54-30.12-1.63c0,0-13.68,12.19,3.19,20.48l15.31,5.11s5.74,3.11-.5,7.72-20.34-4.89-20.34-4.89l-4.32,7.16s11.91,10.06,26.72,6.38,11.76-17,11.76-17-1.63-6.73-13.18-8.93S964.88,371,964.88,371s-1.78-5.38,4.32-6.59S983.23,367.87,984.29,369Z" transform="translate(-408.71 -173.74)"/></g><g id="FITNESS"><polygon class="cls-2" points="543.48 159.81 551.14 159.81 551.14 161.37 545.11 161.37 545.11 164.56 550.36 164.56 550.36 166.26 545.18 166.26 545.18 171.58 543.41 171.58 543.48 159.81"/><path class="cls-2" d="M965.14,333.53h1.63v11.69h-1.66S965.08,333.47,965.14,333.53Z" transform="translate(-408.71 -173.74)"/><polygon class="cls-2" points="563.01 159.85 572.19 159.85 572.19 161.41 568.49 161.41 568.49 171.61 567 171.61 567 161.41 563.04 161.41 563.01 159.85"/><polygon class="cls-2" points="576.68 171.26 576.72 159.95 578.56 159.95 584.34 168.6 584.34 159.81 585.93 159.81 585.93 171.54 584.02 171.54 578.49 162.33 578.49 171.26 576.68 171.26"/><path class="cls-2" d="M1000.31,333.55h8.18v1.31h-6.59v3.33h6.42v1.56h-6.38v3.69h6.87v1.7h-8.5S1000.42,333.55,1000.31,333.55Z" transform="translate(-408.71 -173.74)"/><path class="cls-2" d="M1021,336.78h1.74a3.67,3.67,0,0,0-3.72-3.48c-3.69-.28-4.71,1.81-4.71,1.81a3.92,3.92,0,0,0,.1,2.52c.6,1.5,2.25,1.83,2.88,2.09,1.32.54,2.59.29,3.11.67a1.61,1.61,0,0,1,.94,1.91,1.9,1.9,0,0,1-1.19,1.28c-2.83.78-4.92-1.13-4.92-2.27h-1.63s.21,2.81,2.51,3.63a8.5,8.5,0,0,0,4.61.16,4.56,4.56,0,0,0,1.72-1.43,3.48,3.48,0,0,0-1.12-4.61,7.22,7.22,0,0,0-3.15-.74,2.58,2.58,0,0,1-1.61-.64,2.08,2.08,0,0,1-.59-1.26c0-.82.95-1.48,2.27-1.5A2.6,2.6,0,0,1,1021,336.78Z" transform="translate(-408.71 -173.74)"/><path class="cls-2" d="M1035,336.78h1.74a3.67,3.67,0,0,0-3.72-3.48c-3.69-.28-4.71,1.81-4.71,1.81a3.92,3.92,0,0,0,.1,2.52c.6,1.5,2.25,1.83,2.88,2.09,1.32.54,2.59.29,3.11.67a1.61,1.61,0,0,1,.94,1.91,1.9,1.9,0,0,1-1.19,1.28c-2.83.78-4.92-1.13-4.92-2.27h-1.63s.21,2.81,2.51,3.63a8.5,8.5,0,0,0,4.61.16,4.56,4.56,0,0,0,1.72-1.43,3.48,3.48,0,0,0-1.12-4.61,7.22,7.22,0,0,0-3.15-.74,2.58,2.58,0,0,1-1.61-.64,2.08,2.08,0,0,1-.59-1.26c0-.82,1-1.48,2.27-1.5A2.6,2.6,0,0,1,1035,336.78Z" transform="translate(-408.71 -173.74)"/></g></svg>