<svg id="Layer_1" data-name="Layer 1" xmlns="http://www.w3.org/2000/svg" viewBox="0 0 232.53 232.53"><defs><style>.cls-1{fill:none;stroke:#fc0;stroke-miterlimit:10;stroke-width:6px;}.cls-2{fill:#fc0;}</style></defs><g id="vitruvian"><circle class="cls-1" cx="116.26" cy="116.26" r="113.26"/><path id="Man" class="cls-2" d="M243.16,151.19s4.92,1.51,6.43,5.48l11.17,6.61s12.26,3.34,14.25,7a21.36,21.36,0,0,0,5.95,1.28c3.33.21,9.57,3.4,10.13,4.53,0,0-.42.5,4,.71s6,2.34,6,2.34h4.11s7-3.83,7.79-5.1-.78-8.72-.78-8.72-1.56.78-1.7-1.13-.42-5.18.85-4.54c0,0-.92-7.16,4.61-9.57s11.19,1.49,10.34,9.07c0,0,1.42-.42,1.42,2.06s-.28,4.68-2.05,4.25l-1.07,8.72s5.74,4.46,8.72,5.31,6.31-1.49,6.31-1.49a16.53,16.53,0,0,1,6.94-1.55,24,24,0,0,1,13.68-5,8.12,8.12,0,0,0,4.89-3.25c1.77-2.7,12-4.89,12-4.89s7.86-5.53,10.56-6.31c0,0,2.76-5.46,7.15-5.88l.85-.85,8.58,8.07-1.35.5a10.79,10.79,0,0,0-4.75.5s-4.6,4.18-9.56,4.46c0,0-8.58,5.46-12.41,8.86s-7.51,4.82-8.64,4.82-6.73,3.05-7,4.11,9.22.35,9.22.35,9.28-.92,11.48.22l8.78-.22,5.39-.63.35,6.94s-2.76-1.13-9.07.78-16.08,3.12-22.39,2a25.94,25.94,0,0,0-6.31,1.63c-2.05,1.07-10.63-.35-10.63-.35l-7.23-.92s-1,11.55-5,17.36c0,0-3.9,9.57-.64,16.72,0,0,1.28,13.26,4.4,16,0,0,11.69,17.72,11.48,26.72,0,0,1.42,3.33.92,4.67,0,0,4.89,6,5,8.72,0,0,10.13,10.84,10.13,19.91,0,0,3.05,13.33,4.82,15.38,0,0,.85,3.19,7.3,5.1l3.19.85-13.46,7.38-.36-6.1s-.07-2.13-4-9.35c0,0-9.7-11.63-10.56-14s-2.9-10.14-2.9-10.14-5.67-5.31-7.94-10.06c0,0-1.63-2.41-2.12-3.19,0,0-2-.85-2.84-4.32,0,0-1.7.92-1.7,4.82s.36,8,.36,8l-.22,5.74s1.77,6.38.64,8.58a129.93,129.93,0,0,0-2.27,17.64c-.49,9.29-1.13,13.75,11.2,19s1.42,2.34,1.42,2.34L327,341.3s-.85-5.39.78-8.15v-7.94s-3.05-12.82-3.33-17.08-.5-10.41,1.35-14.1c0,0-1.66-7.34-2-21a21.63,21.63,0,0,1-2.26-10.3s-1.7-9.59-.9-12l-2.79-.05s-.85,18.28-3,22.39c0,0-1.32,16.07-2.84,19.37,0,0,4.68,14.6,1,20.6,0,0-2.18,3-2.27,13.61,0,0-.71,6.85.75,9.35s-2.78,4-2.78,4l-18.29-2.6s10.92-2.84,13-8.08a57.93,57.93,0,0,0,.19-17.39s-2.93-11.33-1.84-18a44.94,44.94,0,0,0,.47-11.62s.95-4.49,0-6.42a15.52,15.52,0,0,1-1.18-3l-.9,0s.19.94-1,2.74-3.59,4.77-4,6.71-2.83,3.73-3.59,4.34-3.4,2.84-3.87,5-2.5,10.73-5.24,13c0,0-7.89,8.84-8.7,11.91,0,0-3.4,5.39-3.73,7a26,26,0,0,0,.1,5.43l-12.43-5.86s7.28-1.6,9.26-5.62,4.49-15,4.49-15,1.42-8.93,4-11.48c0,0,.42-2.79,5.38-7.47a8.45,8.45,0,0,1,2.41-4.67c2.32-2.6,5.48-12.29,5.15-14.46,0,0,1.32-6.19,6.85-16.54,0,0,3.92-7.51,6.05-9.68s2.36-13.42,2.36-13.42,3.92-7.27-2.41-19.6c0,0-2.93-5.15-3-13.8l-4.92.24s-9.26,3.73-17.24-.33c0,0-14.88.85-20.22-1.28,0,0-6.1-.61-9.17-2.08l-4.16.14.48-7.18s8.5,1.7,15,1a53.48,53.48,0,0,1,12.66.38s6.38.28,7-.43-1.55-1.6-1.55-1.6-15-6-18.19-10.68a72,72,0,0,0-7-5.05s-6.42-1.66-9.07-4.49c0,0-1.51-1-6.28-1.47s5-8.64,5-8.64Z" transform="translate(-203.5 -113.91)"/><circle class="cls-1" cx="200.62" cy="70.07" r="6.52"/><circle class="cls-1" cx="30.62" cy="70.07" r="6.52"/></g></svg>